<svg width="58" height="33" viewBox="0 0 58 33" fill="none" xmlns="http://www.w3.org/2000/svg">
<path d="M30.0461 29.6734C30.0461 29.7145 29.8519 29.8452 29.4222 30.0171C28.79 30.2612 28.1374 30.4487 27.472 30.5774C27.0387 30.6634 26.553 30.7381 26.015 30.7904C25.4302 30.8461 24.8425 30.8648 24.2554 30.8464C23.5772 30.827 22.9015 30.7559 22.2342 30.6335C21.4792 30.4964 20.7387 30.2888 20.0225 30.0133C19.235 29.7031 18.4834 29.3086 17.7809 28.8365C17.018 28.317 16.3173 27.7115 15.6925 27.0321C15.3642 26.676 15.0561 26.3019 14.7697 25.9113C14.4695 25.5083 14.1914 25.0892 13.9366 24.6561C13.6763 24.2155 13.4394 23.7616 13.2268 23.2962C13.1707 23.1804 13.1147 23.0646 13.0624 22.9413L12.9092 22.5677C12.8569 22.4482 12.8121 22.3249 12.7635 22.1941L12.6888 22.0111L12.6215 21.8243C12.2495 20.8091 11.9486 19.7693 11.7212 18.7123C11.6091 18.1918 11.5194 17.6476 11.4522 17.0797C11.3812 16.5156 11.3401 15.9589 11.3251 15.3575C11.2933 14.1619 11.4189 12.9674 11.6987 11.8046C12.1465 9.9799 13.0458 8.29699 14.3139 6.91064C14.729 6.45679 15.1786 6.03586 15.6589 5.65165C16.1326 5.27387 16.6319 4.92935 17.1533 4.62054C17.658 4.31636 18.1808 4.04314 18.7186 3.80239C19.2451 3.56569 19.7838 3.35742 20.3326 3.17849C20.8675 3.00137 21.4112 2.85174 21.9615 2.73019C22.5069 2.61064 23.0524 2.51724 23.5941 2.45L23.9976 2.40517L24.3712 2.36407L25.1408 2.28562C27.1769 2.06894 29.1121 1.85226 30.9241 1.63931L35.9639 1.04157C39.0461 0.667982 41.5417 0.372848 43.2715 0.193525C45.0012 0.014203 45.9614 -0.049307 45.9763 0.0403542C45.9913 0.130015 45.0536 0.369112 43.3612 0.709077C41.6688 1.04904 39.1582 1.49361 36.0872 1.97928C34.5517 2.22585 32.8705 2.48362 31.0586 2.74513C29.2466 3.00664 27.3114 3.26442 25.2753 3.51099L24.5019 3.60439L24.1283 3.64922L23.7547 3.69778C23.2541 3.76876 22.7498 3.86216 22.2604 3.97797C21.7553 4.09755 21.2566 4.24219 20.766 4.41134C20.2575 4.57942 19.7586 4.77522 19.2716 4.99787C18.7825 5.21802 18.3071 5.46754 17.8482 5.74505C17.3836 6.02635 16.9392 6.33968 16.5182 6.68275C16.0922 7.02597 15.6926 7.4006 15.3226 7.80352C14.9523 8.21197 14.615 8.64919 14.3139 9.11108C13.7219 10.0305 13.2828 11.0398 13.0138 12.0998C12.7568 13.1483 12.6375 14.2258 12.6589 15.3052C12.6656 15.8371 12.7005 16.3684 12.7635 16.8967C12.8233 17.4197 12.9055 17.939 13.0063 18.4508C13.1072 18.9626 13.2305 19.4632 13.3799 19.9451C13.5294 20.4271 13.6601 20.9239 13.8283 21.3909L13.8918 21.5665L13.9553 21.7421C14.0001 21.8579 14.0412 21.9737 14.086 22.0858L14.2243 22.4258C14.2691 22.5378 14.3214 22.6462 14.37 22.7582C14.5642 23.1991 14.7772 23.625 15.0051 24.0322C15.233 24.4394 15.4758 24.8317 15.7523 25.2015C16.0287 25.5714 16.2865 25.9225 16.5705 26.2513C17.6098 27.4857 18.9117 28.4723 20.3812 29.1391C21.0342 29.4216 21.7121 29.643 22.4061 29.8004C23.028 29.9463 23.6598 30.0462 24.2965 30.0993C24.8555 30.1472 25.4167 30.1646 25.9777 30.1516C26.4932 30.1516 26.9677 30.1067 27.3936 30.0619C28.2417 29.9722 28.888 29.8452 29.3438 29.7593C29.7996 29.6734 30.0312 29.6285 30.0461 29.6734Z" fill="white"/>
<path d="M32.7468 28.2462C32.7206 28.2088 32.8065 28.093 33.0008 27.9137C33.098 27.824 33.2175 27.7157 33.3744 27.5924C33.4491 27.5326 33.5276 27.4654 33.6173 27.3981C33.7069 27.3309 33.7966 27.2599 33.8975 27.1852C34.3047 26.8975 34.7978 26.5426 35.3918 26.1728L35.8551 25.8814C36.0158 25.7842 36.1801 25.6796 36.352 25.5788C36.6957 25.3733 37.0581 25.1603 37.4429 24.9399C37.6334 24.8278 37.8165 24.7195 38.0369 24.6074L38.6571 24.2637L39.3071 23.9088L39.9834 23.5352C40.4429 23.2924 40.9211 23.0421 41.4142 22.7881C41.9074 22.534 42.423 22.2987 42.946 22.0371C43.997 21.5141 45.0979 20.9811 46.2486 20.4382C47.3993 19.889 48.5948 19.3361 49.8202 18.7757L50.8364 18.3162L51.8003 17.8791L50.5935 14.5654C50.2013 13.4932 49.8277 12.4621 49.4727 11.4833C48.7741 9.52567 48.1652 7.74739 47.6832 6.28666C47.2013 4.82593 46.8426 3.60803 46.6297 2.76746C46.4167 1.92689 46.342 1.45617 46.4242 1.43002C46.5923 1.37398 47.3246 3.12611 48.3632 6.06251C48.8825 7.53071 49.4839 9.29405 50.1228 11.2703C50.4441 12.2603 50.7803 13.3026 51.1278 14.3898L51.6583 16.0597L52.2897 18.0808L50.0481 19.224L46.5512 21.021C45.4304 21.6038 44.3395 22.1716 43.3046 22.7133L41.8103 23.5053C41.3171 23.7594 40.8464 24.0134 40.3868 24.2525L39.7144 24.6261L39.0643 24.9735L38.4404 25.306L37.8464 25.6236L36.7256 26.2213C36.55 26.311 36.3819 26.4081 36.2175 26.4978L35.7356 26.7443C35.1154 27.0731 34.6148 27.3757 34.159 27.6036C34.0506 27.6634 33.946 27.7119 33.8526 27.768L33.5836 27.9137C33.4155 28.0033 33.2698 28.0781 33.1503 28.1304C32.9186 28.2424 32.7767 28.2835 32.7468 28.2462Z" fill="white"/>
<path d="M5.84905 30.1377C5.8229 30.175 5.72203 30.1377 5.56138 30.0779C5.32762 29.9506 5.11676 29.7852 4.93748 29.5885C4.80305 29.4515 4.67822 29.3055 4.56388 29.1514C4.42867 28.9706 4.30393 28.7823 4.19028 28.5873C3.93444 28.1225 3.70251 27.6449 3.49539 27.1564C3.26376 26.6259 3.01345 26.0357 2.74819 25.4192C2.61743 25.1017 2.48294 24.7692 2.35592 24.4218C2.22889 24.0743 2.11308 23.7045 2.001 23.3346C1.78057 22.5874 1.58257 21.8066 1.38082 21.0034L1.10063 19.7967C0.999755 19.3821 0.887676 18.9562 0.805484 18.4854C0.713633 18.0031 0.682258 17.5111 0.712085 17.021C0.751302 16.507 0.897652 16.0068 1.14172 15.5528C1.26977 15.3202 1.42944 15.1064 1.61619 14.9177C1.80408 14.731 2.018 14.5724 2.25131 14.447C2.47115 14.3294 2.7045 14.2391 2.9462 14.178C3.16886 14.1215 3.39667 14.0877 3.62615 14.0771C4.04637 14.0524 4.46802 14.08 4.88144 14.1593C5.25503 14.2303 5.62863 14.3274 5.94245 14.4171C6.25628 14.5067 6.57383 14.5889 6.8615 14.6524C7.12812 14.7138 7.39922 14.7538 7.67221 14.772C8.15504 14.795 8.63892 14.7624 9.1143 14.6748C9.54767 14.6001 9.925 14.5105 10.2351 14.4395C10.859 14.29 11.2214 14.234 11.255 14.3199C11.2886 14.4059 10.9972 14.6263 10.4144 14.9289C10.0529 15.1131 9.67829 15.2705 9.29363 15.3996C8.45725 15.7027 7.55936 15.7963 6.67844 15.6723C6.34594 15.6275 6.0097 15.564 5.68093 15.4967C5.35217 15.4295 5.01593 15.366 4.68716 15.3249C4.36695 15.2876 4.0435 15.2876 3.72328 15.3249C3.5677 15.3407 3.41388 15.3707 3.26376 15.4145C3.12386 15.4549 2.98956 15.5127 2.86401 15.5864C2.74242 15.6542 2.63265 15.7412 2.53898 15.8442C2.43911 15.9569 2.35492 16.0825 2.28867 16.2178C2.14139 16.5126 2.05499 16.834 2.03462 17.1629C2.01787 17.5385 2.04546 17.9146 2.11681 18.2837C2.1878 18.6797 2.2924 19.0944 2.38954 19.5128L2.67721 20.7456C2.86401 21.5563 3.03213 22.3334 3.21145 23.0544C3.30112 23.428 3.39452 23.7642 3.49539 24.1005C3.59626 24.4367 3.70087 24.7617 3.80921 25.0793C4.02216 25.7144 4.2239 26.3196 4.39949 26.8688C4.57509 27.4179 4.72452 27.8999 4.88144 28.3108C4.96114 28.515 5.03959 28.7018 5.1168 28.8712C5.19899 29.0393 5.27371 29.1887 5.35217 29.3232C5.66225 29.8014 5.9163 30.0555 5.84905 30.1377Z" fill="white"/>
<path d="M7.34098 31.669C7.34098 31.6204 7.39702 31.5868 7.47174 31.5532L7.6025 31.5121L7.77062 31.471L7.9761 31.4261C8.05082 31.4075 8.12927 31.3925 8.21147 31.3664C8.37585 31.3253 8.56265 31.2655 8.76065 31.1945C9.21936 31.0191 9.6518 30.7815 10.0458 30.4884C10.5399 30.1107 10.9921 29.6812 11.3945 29.207C11.6187 28.953 11.8354 28.6915 12.0408 28.4337C12.2463 28.1759 12.4555 27.9107 12.6909 27.6566C12.9237 27.3952 13.1929 27.1687 13.4904 26.9842C13.7411 26.8286 14.0223 26.7288 14.3149 26.6914C14.6075 26.654 14.9048 26.68 15.1865 26.7675C15.3573 26.8179 15.5215 26.8881 15.6759 26.9767C15.9225 27.1187 16.0495 27.2457 16.0122 27.3503C15.9748 27.4549 15.8179 27.4811 15.5527 27.496C15.4182 27.496 15.2613 27.496 15.0931 27.5259C14.9189 27.5374 14.7469 27.5713 14.5813 27.6267C14.4993 27.6577 14.4205 27.6965 14.3459 27.7426C14.2615 27.7911 14.1826 27.8488 14.1106 27.9144C13.9299 28.0814 13.7672 28.2667 13.6249 28.4673C13.4568 28.6915 13.2849 28.9605 13.0757 29.2481C12.8665 29.5358 12.6423 29.8197 12.392 30.1074C11.909 30.6671 11.3388 31.1452 10.7034 31.5233C10.169 31.8473 9.57164 32.0537 8.95119 32.1285C8.71291 32.1566 8.47216 32.1566 8.23388 32.1285C8.13592 32.116 8.03866 32.0985 7.94247 32.0762L7.71458 31.994L7.53525 31.9081C7.49021 31.884 7.44872 31.8538 7.41196 31.8184C7.34098 31.7549 7.31483 31.7138 7.34098 31.669Z" fill="white"/>
<path d="M29.0558 27.9938C29.0558 28.0274 28.884 28.1058 28.5328 28.2216C28.0141 28.3831 27.4848 28.5079 26.9487 28.5952C26.094 28.7302 25.2276 28.7765 24.3634 28.7335C23.2089 28.6729 22.0725 28.4204 21.001 27.9863C20.3809 27.7271 19.7888 27.4054 19.2339 27.0262C18.6342 26.6163 18.0794 26.1442 17.5789 25.6177C17.0436 25.0564 16.5655 24.4432 16.1517 23.7872C15.7155 23.0925 15.3405 22.3613 15.0309 21.6017C14.379 19.9687 14.0003 18.2395 13.9102 16.4835C13.9102 16.3677 13.9102 16.2556 13.9102 16.1398C13.9102 16.024 13.9102 15.9119 13.9102 15.7961C13.9102 15.5645 13.9102 15.3366 13.9102 15.1012C13.9102 14.8659 13.9363 14.638 13.9513 14.4064C13.9513 14.2905 13.9774 14.171 13.9886 14.0552V13.8796C13.9886 13.8236 13.9886 13.7638 14.011 13.704C14.0732 13.2334 14.1631 12.7669 14.28 12.3068C14.3984 11.8377 14.5481 11.3772 14.7283 10.9282C15.0773 10.0247 15.5945 9.19564 16.2526 8.48498C16.3385 8.39905 16.4207 8.31313 16.5067 8.23094L16.7757 7.99558L17.0596 7.7789C17.1077 7.74392 17.1575 7.7115 17.209 7.68177L17.3585 7.58463L17.4332 7.53607L17.5116 7.49123L17.6648 7.40905C17.7168 7.37871 17.7704 7.35127 17.8255 7.32686L17.9861 7.25587L18.1468 7.18116L18.3261 7.09523L18.6474 6.97942C20.2857 6.39861 21.9544 5.90724 23.6461 5.50748C25.2601 5.13389 26.803 4.79766 28.2526 4.51747C29.7021 4.23728 31.0546 4.00939 32.2912 3.81513C34.7681 3.44154 36.7743 3.18376 38.1791 3.06795C39.5838 2.95214 40.3534 2.92225 40.3609 2.9895C40.3683 3.05674 39.6137 3.19123 38.2164 3.39297C36.8192 3.59471 34.8279 3.86369 32.3547 4.24475C31.1218 4.43902 29.7694 4.65944 28.3236 4.92468C27.6025 5.05918 26.8553 5.20114 26.082 5.36178L24.9163 5.60835L24.3261 5.74284L24.0272 5.81382L23.7246 5.88481C22.044 6.27269 20.3864 6.75412 18.7595 7.32686L18.4456 7.4464L18.2887 7.50244L18.1393 7.56969L17.9898 7.63693C17.9375 7.65935 17.8927 7.68924 17.8441 7.71539L17.6984 7.79384L17.6275 7.8312L17.5565 7.87603L17.4182 7.96943C17.3694 7.9962 17.3231 8.02746 17.28 8.06283L17.0148 8.26456L16.7607 8.48498C16.6785 8.56343 16.6038 8.64562 16.5253 8.72408C16.2131 9.05676 15.9364 9.42111 15.6997 9.81122C15.456 10.2077 15.2484 10.6253 15.0795 11.059C14.9074 11.4918 14.7664 11.9362 14.6574 12.389C14.5441 12.8367 14.458 13.2908 14.3996 13.7488L14.3772 13.917V14.0888C14.3772 14.2046 14.351 14.3167 14.3435 14.4288C14.3435 14.6567 14.3099 14.8845 14.3062 15.1087C14.3024 15.3329 14.3062 15.5607 14.3062 15.7849C14.3062 15.897 14.3062 16.009 14.3062 16.1211C14.3062 16.2332 14.3062 16.3415 14.3062 16.4536C14.3572 17.3256 14.4822 18.1917 14.6798 19.0426C14.8623 19.8564 15.1123 20.6537 15.427 21.4261C16.0058 22.8571 16.8472 24.1672 17.9077 25.289C18.3906 25.7882 18.9225 26.2375 19.4954 26.6302C20.0237 26.9887 20.5855 27.2953 21.1729 27.5455C22.1949 27.9591 23.2751 28.2112 24.3746 28.2926C25.2112 28.349 26.051 28.3352 26.8852 28.2515C27.5726 28.1693 28.1069 28.0872 28.4693 28.0274C28.8317 27.9676 29.0446 27.9639 29.0558 27.9938Z" fill="white"/>
<path d="M36.1102 23.6993C36.0766 23.6395 36.1924 23.5087 36.4278 23.3257C36.7671 23.0766 37.1187 22.8447 37.4813 22.6308C38.3929 22.0854 39.6781 21.3793 41.0977 20.5985C41.8076 20.2249 42.4875 19.8513 43.1189 19.5151C43.4327 19.3544 43.7316 19.205 44.0193 19.0705C44.3069 18.936 44.5759 18.8202 44.8225 18.7193C45.0691 18.6185 45.3007 18.5363 45.5062 18.469L45.7901 18.3831L46.0367 18.3271C46.1517 18.2991 46.2695 18.2841 46.3879 18.2822C46.4701 18.2822 46.5186 18.3046 46.5299 18.3345C46.5411 18.3644 46.5298 18.4092 46.4514 18.4653C46.3588 18.5355 46.2615 18.5992 46.16 18.6558L45.9396 18.7716L45.6818 18.9024L45.0429 19.2162L44.2957 19.5898C44.0193 19.728 43.7241 19.8812 43.4178 20.0456C42.8013 20.3706 42.1251 20.7442 41.419 21.1364C39.9994 21.921 38.7179 22.6308 37.769 23.109C37.3954 23.3034 37.0112 23.4767 36.6183 23.6283C36.3157 23.7329 36.1438 23.759 36.1102 23.6993Z" fill="white"/>
<path d="M38.0481 13.4193C28.6782 16.2623 18.083 9.89258 18.083 9.89258C18.083 9.89258 18.961 27.0702 38.0481 13.4193Z" fill="white"/>
<path d="M57.2765 19.3746C55.9801 18.1305 54.8742 16.61 53.279 15.9002C53.1893 15.7545 49.7373 10.5093 39.5231 13.9426C39.3624 13.9986 39.2018 14.0509 39.0374 14.0958C18.2467 29.2223 17.1222 9.96387 17.1222 9.96387C17.1222 9.96387 12.4821 17.1442 19.3974 23.9622C26.3127 30.7802 43.7746 16.95 43.7746 16.95C43.7746 16.95 48.1569 13.4569 53.208 15.8666L53.0959 15.818C53.4443 15.984 53.7467 16.233 53.9766 16.543C54.2066 16.853 54.357 17.2147 54.4147 17.5963C54.7024 19.2214 54.2914 20.9586 55.4309 22.1765C55.9464 22.621 56.8692 22.4417 57.4595 22.0009C57.9415 21.5937 57.9452 20.8577 57.7808 20.3197C57.6483 19.9869 57.4791 19.6699 57.2765 19.3746Z" fill="white"/>
</svg>
